<svg width="320" height="40" viewBox="0 0 320 40" fill="none" xmlns="http://www.w3.org/2000/svg">
  <g transform="translate(2,2) scale(0.07)">
    <path d="M398.588 183.977C383.878 176.202 368.565 169.652 352.799 164.39L351.491 163.929C302.022 147.727 249.29 144.443 198.222 154.386V154.266C198.24 149.225 198.907 144.208 200.205 139.341C203.472 126.761 210.779 115.628 220.983 107.683C231.187 99.7379 243.713 95.4284 256.602 95.4284C269.492 95.4284 282.018 99.7379 292.222 107.683C302.426 115.628 309.733 126.761 313 139.341L314.983 139.681C327.39 142.099 339.635 145.293 351.649 149.244L352.958 149.684L353.374 149.824C352.247 124.716 341.567 101.012 323.557 83.6462C305.547 66.2801 281.594 56.5889 256.682 56.5889C231.769 56.5889 207.816 66.2801 189.806 83.6462C171.796 101.012 161.116 124.716 159.989 149.824C159.989 151.305 159.89 152.785 159.89 154.266C159.891 157.647 160.063 161.026 160.406 164.39C144.586 169.644 129.219 176.194 114.459 183.977C114.26 187.538 114.26 191.099 114.26 194.66C114.298 206.146 114.96 217.62 116.243 229.033C116.422 230.533 116.6 230.193 116.779 231.673C130.866 224.381 145.492 218.201 160.525 213.187C165.442 211.226 170.427 209.419 175.477 207.765C189.059 203.27 202.988 199.924 217.12 197.761C228.225 196.067 239.425 195.091 250.653 194.84C252.57 194.84 254.494 194.84 256.424 194.84C258.354 194.84 260.278 194.84 262.195 194.84C273.423 195.091 284.623 196.067 295.728 197.761C309.86 199.926 323.789 203.273 337.371 207.765C342.461 209.446 347.491 211.273 352.462 213.247C352.462 213.847 352.462 214.467 352.323 215.068C351.26 229.072 349.085 242.968 345.819 256.622C345.482 258.103 345.105 259.543 344.728 261.004C330.674 315.435 299.706 363.893 256.365 399.273C213.023 363.893 182.055 315.435 168.001 261.004C153.493 266.286 139.478 272.854 126.119 280.631C142.287 336.714 173.873 387.027 217.219 425.742C229.514 436.748 242.657 446.749 256.523 455.653C270.387 446.754 283.523 436.752 295.807 425.742C339.123 386.986 370.663 336.636 386.769 280.531C391.002 265.798 394.124 250.763 396.109 235.555C396.208 234.875 396.267 234.194 396.367 233.554C396.545 232.054 396.724 230.573 396.882 229.073C398.174 217.674 398.836 206.213 398.865 194.74C398.786 191.099 398.707 187.538 398.588 183.977Z" fill="#2254c5"/>
    <path d="M281.391 263.064C281.395 258.973 280.408 254.942 278.515 251.324C276.622 247.706 273.881 244.609 270.53 242.305C267.179 240 263.32 238.558 259.29 238.103C255.26 237.647 251.181 238.193 247.408 239.693C243.635 241.193 240.282 243.601 237.643 246.708C235.004 249.814 233.158 253.524 232.266 257.516C231.373 261.507 231.462 265.658 232.524 269.606C233.586 273.555 235.589 277.182 238.359 280.17L232.152 323.906H280.835L274.688 280.17C278.997 275.535 281.393 269.419 281.391 263.064Z" fill="#2254c5"/>
  </g>
  <text x="44" y="17" font-family="Helvetica, Arial, sans-serif" font-weight="800" font-size="14" fill="white" letter-spacing="1">SECURE DIGITAL</text>
  <text x="44" y="33" font-family="Helvetica, Arial, sans-serif" font-weight="800" font-size="14" fill="white" letter-spacing="1">PAYMENTS</text>
</svg>
