<svg width="129" height="36" viewBox="0 0 129 36" fill="none" xmlns="http://www.w3.org/2000/svg">
<path d="M16.4659 30.3761C17.3375 31.2748 18.109 32.1375 18.9556 32.9194C20.7399 34.564 22.7995 35.7099 25.2802 35.9211C30.3189 36.3524 34.1013 31.8275 32.7085 26.9611C32.2897 25.4962 31.6275 24.0942 30.9971 22.6923C28.2092 16.5317 25.3917 10.3712 22.5901 4.20162C21.1268 0.975309 17.9497 -0.640095 14.7431 0.236132C13.9696 0.427957 13.2503 0.790463 12.6393 1.29637C12.0283 1.80228 11.5415 2.43841 11.2155 3.15689C7.83361 10.297 4.45323 17.4364 1.07438 24.575C0.261903 26.296 -0.291126 28.0844 0.164042 29.9964C1.42713 35.2605 7.23279 37.6061 11.9984 34.8112C13.4959 33.9349 14.6566 32.7262 15.6648 31.3512C15.9197 31.0344 16.1859 30.7266 16.4659 30.3761ZM10.7649 16.3789C10.8288 16.0742 10.9131 15.7739 11.0175 15.4802C12.4604 12.4367 13.9093 9.39608 15.3644 6.35849C15.6284 5.80579 15.9288 5.2531 16.657 5.26658C17.3853 5.28006 17.7517 5.78333 18.0362 6.40792C20.51 11.8181 23.018 17.2125 25.4782 22.6271C26.3134 24.4627 27.0963 26.3275 27.8109 28.2125C28.3844 29.729 27.5264 31.0726 25.8992 31.1333C25.0752 31.1735 24.2559 30.9876 23.5323 30.5963C22.5446 30.0121 21.7117 29.1674 20.8377 28.4012C19.7158 27.4194 19.3289 26.3163 20.3507 25.0131C20.4871 24.7885 20.5898 24.5456 20.6557 24.2919C22.0052 20.6972 19.4563 16.9698 15.9379 16.4508C14.7863 16.2823 13.596 16.3857 12.4217 16.3699C11.9074 16.3722 11.393 16.3789 10.7649 16.3789ZM11.4476 21.1398C12.358 21.1398 13.2683 21.0701 14.1673 21.1555C15.6215 21.2948 16.1928 22.1912 15.5328 23.3798C14.1923 25.7591 12.713 28.0732 10.7103 29.9717C10.0601 30.5301 9.27707 30.9166 8.43443 31.0951C7.33748 31.3534 6.35432 30.8861 5.6124 30.0369C4.90461 29.2258 4.97971 28.3226 5.39847 27.4172C5.94694 26.2309 6.4977 25.0446 7.07576 23.8718C8.72802 20.4882 7.77216 21.2139 11.4363 21.1398H11.4476Z" fill="#1570EF"/>
<path d="M128.336 13.1167L123.38 27.1167C123.156 27.8073 122.839 28.498 122.428 29.1887C122.036 29.898 121.532 30.5327 120.916 31.0927C120.319 31.6527 119.591 32.0727 118.732 32.3527C117.892 32.6513 116.894 32.726 115.736 32.5767L115.428 30.2247C116.567 29.926 117.454 29.5247 118.088 29.0207C118.723 28.5167 119.218 27.854 119.572 27.0327L120.44 25.1007C120.608 24.69 120.767 24.1953 120.916 23.6167C121.084 23.0193 121.224 22.506 121.336 22.0767L123.912 13.1167H128.336ZM117.36 13.1167L119.992 22.0767C120.067 22.4313 120.142 22.786 120.216 23.1407C120.291 23.4953 120.356 23.85 120.412 24.2047H121.168L119.852 26.9487H118.844C118.527 26.9487 118.247 26.8553 118.004 26.6687C117.762 26.482 117.594 26.2393 117.5 25.9407L112.936 13.1167H117.36Z" fill="#1570EF"/>
<path d="M105.869 12.7527C107.026 12.7527 108.006 12.9113 108.809 13.2287C109.612 13.5273 110.218 14.05 110.629 14.7967C111.058 15.5247 111.273 16.5327 111.273 17.8207V26.9487H107.969L107.381 23.9527L107.101 23.5327V17.7927C107.101 17.1393 106.942 16.6633 106.625 16.3647C106.326 16.066 105.748 15.9167 104.889 15.9167C104.18 15.9167 103.293 15.9447 102.229 16.0007C101.165 16.038 100.073 16.094 98.9529 16.1687L98.5609 13.4247C99.2329 13.294 100.008 13.182 100.885 13.0887C101.762 12.9953 102.64 12.9207 103.517 12.8647C104.394 12.79 105.178 12.7527 105.869 12.7527ZM109.565 18.4367L109.537 20.7607L103.377 20.7887C102.873 20.7887 102.509 20.91 102.285 21.1527C102.08 21.3953 101.977 21.722 101.977 22.1327V22.8047C101.977 23.2713 102.108 23.6353 102.369 23.8967C102.63 24.1393 103.05 24.2607 103.629 24.2607C104.114 24.2607 104.637 24.158 105.197 23.9527C105.776 23.7473 106.345 23.458 106.905 23.0847C107.465 22.7113 107.96 22.2727 108.389 21.7687V23.5607C108.221 23.8407 107.969 24.1953 107.633 24.6247C107.316 25.0353 106.905 25.446 106.401 25.8567C105.897 26.2487 105.309 26.5847 104.637 26.8647C103.965 27.1447 103.2 27.2847 102.341 27.2847C101.501 27.2847 100.745 27.1353 100.073 26.8367C99.4009 26.538 98.8689 26.0993 98.4769 25.5207C98.0849 24.942 97.8889 24.2233 97.8889 23.3647V21.9367C97.8889 20.8353 98.2622 19.9767 99.0089 19.3607C99.7556 18.7447 100.782 18.4367 102.089 18.4367H109.565Z" fill="#1570EF"/>
<path d="M89.061 7.34866C90.8717 7.34866 92.2903 7.53533 93.317 7.90866C94.3437 8.282 95.0717 8.926 95.501 9.84066C95.949 10.7553 96.173 12.034 96.173 13.6767C96.173 15.3193 95.9583 16.598 95.529 17.5127C95.1183 18.4273 94.437 19.0713 93.485 19.4447C92.533 19.7993 91.245 19.9767 89.621 19.9767C88.7623 19.9767 87.9223 19.9393 87.101 19.8647C86.2797 19.79 85.5143 19.6967 84.805 19.5847C84.0957 19.4727 83.489 19.3607 82.985 19.2487C82.481 19.118 82.1357 18.9967 81.949 18.8847L82.033 16.7567C83.1343 16.7567 84.273 16.7567 85.449 16.7567C86.6437 16.7567 87.8197 16.7567 88.977 16.7567C89.7237 16.738 90.3024 16.6447 90.713 16.4767C91.1423 16.3087 91.441 16.0007 91.609 15.5527C91.7957 15.1047 91.889 14.4793 91.889 13.6767C91.889 12.8553 91.7957 12.2207 91.609 11.7727C91.441 11.3247 91.1423 11.0167 90.713 10.8487C90.3024 10.662 89.7237 10.5687 88.977 10.5687C87.2597 10.5687 85.785 10.578 84.553 10.5967C83.321 10.6153 82.4903 10.6527 82.061 10.7087L81.641 7.62866C82.425 7.53533 83.1623 7.47 83.853 7.43266C84.5437 7.39533 85.2903 7.37666 86.093 7.37666C86.9143 7.358 87.9037 7.34866 89.061 7.34866ZM85.925 7.62866V26.9487H81.641V7.62866H85.925Z" fill="#1570EF"/>
<path d="M76.3735 7.34866L76.3455 22.5247C76.3455 22.9913 76.4855 23.346 76.7655 23.5887C77.0455 23.8127 77.4562 23.9247 77.9975 23.9247H79.1175L79.5935 26.7247C79.3695 26.8367 79.0522 26.93 78.6415 27.0047C78.2309 27.098 77.8109 27.1633 77.3815 27.2007C76.9522 27.2567 76.5882 27.2847 76.2895 27.2847C75.0389 27.2847 74.0495 26.958 73.3215 26.3047C72.5935 25.6513 72.2295 24.7367 72.2295 23.5607V7.34866H76.3735Z" fill="#1570EF"/>
<path d="M67.186 7.34866L67.158 22.5247C67.158 22.9913 67.298 23.346 67.578 23.5887C67.858 23.8127 68.2687 23.9247 68.81 23.9247H69.93L70.406 26.7247C70.182 26.8367 69.8647 26.93 69.454 27.0047C69.0434 27.098 68.6234 27.1633 68.194 27.2007C67.7647 27.2567 67.4007 27.2847 67.102 27.2847C65.8514 27.2847 64.862 26.958 64.134 26.3047C63.406 25.6513 63.042 24.7367 63.042 23.5607V7.34866H67.186Z" fill="#1570EF"/>
<path d="M54.213 7.62866C54.5677 7.62866 54.8757 7.73133 55.137 7.93666C55.417 8.142 55.6037 8.41266 55.697 8.74866L61.297 26.9487H56.929L52.981 12.7527C52.9064 12.4353 52.8317 12.118 52.757 11.8007C52.6824 11.4647 52.617 11.1473 52.561 10.8487H51.805C51.749 11.1473 51.6837 11.4647 51.609 11.8007C51.553 12.118 51.4784 12.4353 51.385 12.7527L47.437 26.9487H43.041L48.669 8.74866C48.7624 8.41266 48.9397 8.142 49.201 7.93666C49.481 7.73133 49.7984 7.62866 50.153 7.62866H54.213ZM57.181 18.6327V21.8527H47.157V18.6327H57.181Z" fill="#1570EF"/>
</svg>
