<?xml version="1.0" encoding="utf-8"?>
<!-- Generator: Adobe Illustrator 27.7.0, SVG Export Plug-In . SVG Version: 6.00 Build 0)  -->
<svg version="1.1" id="Capa_1" xmlns="http://www.w3.org/2000/svg" xmlns:xlink="http://www.w3.org/1999/xlink" x="0px" y="0px"
	 viewBox="0 0 1600 387" style="enable-background:new 0 0 1600 387;" xml:space="preserve">
<style type="text/css">
	.st0{fill:#4F80FC;}
</style>
<g>
	<path class="st0" d="M396.5,199.4c3.8-11,7.3-21.4,10.9-31.8c4.1-12.1,8.3-24.1,12.3-36.2c0.8-2.3,1.9-3.1,4.3-3
		c10.4,0.1,20.8,0.1,31.2,0.1c4.4,0,4.4,0,2.8,4.3c-11.2,29.8-22.3,59.7-33.5,89.5c-1.1,2.9-1.1,5.4,0,8.3
		c8.2,20.4,16.3,40.9,24.5,61.3c0.3,0.8,0.7,1.6,1.4,3.1c0.8-2.2,1.4-3.7,2-5.3c19.3-52.8,38.5-105.7,57.7-158.5
		c0.9-2.6,2.1-3.4,4.8-3.4c13.8,0.1,27.6,0.1,41.4,0.1c0.4,1.8-0.5,2.9-1,4.2c-28.2,69.3-56.4,138.6-84.6,207.9
		c-1,2.6-2.3,3.6-5.2,3.6c-9.4-0.2-18.8-0.2-28.1,0c-2.8,0.1-3.9-1-4.9-3.4c-11.3-27.6-22.7-55.2-34-82.8c-0.5-1.3-1.1-2.5-1.9-4.3
		c-5.1,12.3-10,24-14.8,35.8c-7.1,17.2-14.3,34.3-21.2,51.5c-1,2.4-2.1,3.2-4.7,3.2c-9.5-0.2-19-0.2-28.5,0c-2.5,0-3.8-0.7-4.8-3.1
		c-28.1-69.8-56.4-139.5-84.6-209.2c-1.2-3-0.7-3.5,2.4-3.5c12.5,0.1,25.1,0.2,37.6,0c3,0,4.1,1.1,5,3.7
		c19.4,53.1,38.8,106.1,58.3,159.1c0.4,1.2,0.9,2.3,1.4,3.5c1.5-0.3,1.5-1.5,1.8-2.4c8.1-20.8,16.2-41.7,24.4-62.5
		c0.9-2.3,0.5-4.1-0.3-6.2c-11.2-30.1-22.3-60.2-33.4-90.3c-1.5-4.2-1.5-4.2,2.9-4.2c10,0,20,0.1,30-0.1c3.1-0.1,4.6,0.8,5.6,3.9
		c7,21,14.2,41.9,21.4,62.8C395.3,196.2,395.8,197.4,396.5,199.4z"/>
	<path class="st0" d="M23.7,230.2c0.9-31.3,15.6-60.9,44.1-83.3c15.2-12,33.1-18.2,52.5-19.9c33.4-2.9,61.2,8.5,83.9,32.5
		c14.2,15,23.3,33.1,27.4,53.3c8.3,41-3.3,76.1-33.2,104.9c-14.8,14.3-33.1,22.5-53.6,25.8c-23,3.7-44.7,0-65-11.1
		c-16.3-8.9-29.4-21.5-39.1-37.3C29.7,276.8,23.7,256.9,23.7,230.2z M66.5,236.2c0,7.8,1.4,15.3,3.2,22.8
		c5.6,23.6,26.2,45.5,50.8,48.2c20.9,2.3,38.9-3.5,52.9-19.4c11.5-13,16.9-28.4,18.2-45.6c1.4-17.7-2-34.2-11.1-49.4
		c-20.5-34.2-65.3-38.5-91.9-13.3C72.4,195,67.1,214.7,66.5,236.2z"/>
	<path class="st0" d="M1407.1,83.2c-2.7,0.9-5.3,2.1-7.6,3.8c-2.5,1.9-4,2-6-0.9c-4.5-6.6-4.7-6.5,2.5-10.5
		c6.5-3.5,13.4-6.1,20.8-6.9c2.4-0.3,4.2-1.1,6-2.8c33.3-31.5,85.8-31.9,119.5-0.8c2.3,2.2,4.8,3.4,8,3.8c8.8,1.2,16.8,4.7,24.2,9.5
		c2,1.3,2.3,2.3,0.8,4.1c-1.7,2-2.9,5-5.1,6c-2.2,1-4.2-2.2-6.5-3.1c-1.7-0.7-3.4-1.5-6.1-2.7c1.8,3.5,3.1,5.9,4.3,8.3
		c10.4,21.4,11.9,43.4,4.9,66.1c-0.7,2.3-1,4.6-1.1,7.1c-0.2,18.7,0.8,37.5-0.6,56.2c-1.7,24-9.9,45.9-23.5,65.7
		c-14.4,20.8-33.4,36.2-56.5,46.4c-17.4,7.7-35.8,11-54.8,11c-55,0-110,0-165,0c-1.2,0-2.9,0.6-3.6-0.5c-0.8-1.4,0.8-2.5,1.5-3.6
		c43.2-65,86.5-130.1,129.8-195.1c1.4-2.2,2.5-4.2,2.2-7c-1.8-18.2,2.4-35.2,11.3-51.1C1407,85.2,1407.8,84.6,1407.1,83.2z
		 M1410.6,331.5C1410.6,331.5,1410.6,331.5,1410.6,331.5c9.1-0.1,18.2-0.1,27.4,0c2.1,0,3.4-0.7,4.5-2.6c13.8-24,15.2-48.7,3.2-73.7
		c-13.6-28.2-44.1-44.9-75.1-42.2c-7,0.6-12.7,2.3-15.7,9.3c-0.9,2.2-2.6,4-3.9,6c-22,33.1-44.1,66.1-66.1,99.2
		c-0.7,1-2.1,2.1-1.5,3.3c0.7,1.5,2.5,0.7,3.8,0.7c9.4,0.1,18.8-0.1,28.1,0.1c2.7,0,4.4-0.9,5.8-3.2c10.4-16.2,20.9-32.3,31.4-48.4
		c4.1-6.4,4-6.2,10.4-2.3c2.9,1.8,3,3.1,1.2,5.8c-9.7,14.6-19.3,29.4-28.8,44.2c-0.6,1-2.1,2-1.3,3.3c0.6,1,2.1,0.5,3.2,0.5
		c8.4,0,16.7-0.1,25.1,0.1c2.6,0,4.1-0.8,5.5-3c9.8-15.3,19.8-30.6,29.7-45.9c4-6.2,3.9-6,10.1-2.3c3.1,1.8,3.1,3.3,1.2,6.1
		c-9,13.6-17.8,27.4-26.6,41.1c-0.6,1-2.1,2.1-1.3,3.3c0.7,1.2,2.3,0.6,3.5,0.6C1393.1,331.5,1401.8,331.5,1410.6,331.5z
		 M1476.8,138.7c0,0-0.1,0-0.1,0c0-4,0.2-8.1,0-12.1c-1.2-25-22.7-46.1-47.6-47.2c-2.4-0.1-3.9,0.6-5.5,2.5
		c-24.9,29.7-22.5,75.8,6.2,102.8c21.5,20.3,47.2,27.1,75.6,18.3c28.2-8.7,46.1-28.3,52.5-57.3c5.2-23.4-0.4-44.6-15.1-63.5
		c-1.6-2.1-3.5-2.8-6.2-2.7c-23,1.2-43.1,19.4-46.6,42.3c-1.2,7.9-0.6,15.9-0.7,23.9c-0.2,10.3,2,8.7-9,8.9c-2.4,0-3.4-0.8-3.3-3.3
		C1476.9,147.1,1476.8,142.9,1476.8,138.7z M1554.2,183.3c-2.2,0.8-2.9,2.1-3.7,3.2c-18.3,21.3-41.7,32.5-69.6,31.3
		c-38.7-1.6-65.5-21.5-80.5-57.1c-0.5-1.1-0.4-2.9-1.8-3c-1.4-0.1-1.7,1.7-2.4,2.7c-8,12-16,24-23.9,36.1c-0.9,1.4-3.1,2.8-2.1,4.5
		c0.8,1.3,3.1,0.4,4.7,0.4c23.2-0.5,43.9,6.7,61,22.2c29.4,26.5,37.3,65.9,21.3,102.3c-0.4,0.8-1.4,1.8-0.5,2.7
		c0.7,0.8,1.7,0.1,2.5-0.1c31.3-7.5,56.3-24.4,74.3-51c14-20.6,20.6-43.5,20.7-68.4C1554.2,200.7,1554.2,192.2,1554.2,183.3z
		 M1483.4,53.5c-15.1,0-28.9,4.2-41.7,12.2c-1.2,0.7-3.3,1.3-3,2.9c0.2,1.4,2.3,1.1,3.6,1.5c16.9,4.8,29.8,14.6,38.3,30
		c0.7,1.2,0.8,3.2,2.3,3.2c1.7,0,1.9-2.1,2.6-3.3c8.6-15.4,21.5-25.2,38.4-30c1.2-0.3,3.3,0,3.4-1.6c0.1-1.3-1.8-2-3-2.7
		C1511.8,57.9,1498.2,53.5,1483.4,53.5z"/>
	<path class="st0" d="M579.3,235.2c0-34.4,0.1-68.8-0.1-103.2c0-3.6,1-4.4,4.4-4.3c11,0.2,22.1,0.2,33.1,0c3.4-0.1,4.5,0.8,4.4,4.4
		c-0.1,56.3-0.1,112.6-0.1,168.9c0,5.8,0,5.8,5.9,5.8c33.1,0,66.2,0,99.2,0c5.2,0,5.2,0,5.2,5.2c0,9.2-0.1,18.5,0,27.7
		c0,2.7-0.5,3.8-3.5,3.8c-48.4-0.1-96.8-0.1-145.2,0c-3.1,0-3.4-1.3-3.4-3.8C579.3,304.8,579.3,270,579.3,235.2z"/>
	<path class="st0" d="M761.9,237.2c0-34.5,0.1-69.1-0.1-103.6c0-3.5,1-4.4,4.5-4.4c27.9,0.1,55.8,0.6,83.6-0.1
		c27.4-0.6,54,20.7,61.7,47.1c6.4,22.1,3.9,43-9,62c-11.7,17.2-27.9,27.2-49.5,27c-21.9-0.1-43.9,0.1-65.8-0.1
		c-3.7,0-4.8,1.1-4.7,4.7c0.1,23.7,0,47.3,0.1,71c0,3.1-0.7,4.3-4,4.1c-4.3-0.3-8.6-0.3-12.9,0c-3.3,0.2-4-1.1-4-4.1
		c0.1-29.1,0.1-58.2,0.1-87.3C761.9,248.1,761.9,242.6,761.9,237.2z M782.6,196.9c0,15.2,0,30.4,0,45.5c0,2.5,0.4,3.9,3.5,3.9
		c21.9-0.1,43.8,0.1,65.8-0.1c13.8-0.1,24.5-6.5,32.2-17.7c7.7-11.1,10.3-23.4,9.2-36.7c-1.9-23-18.9-43.9-46.1-43.7
		c-19.9,0.1-39.8,0.1-59.7-0.1c-3.8,0-5.1,0.9-5,4.9C782.7,167.6,782.6,182.2,782.6,196.9z"/>
	<path class="st0" d="M1099.7,344.9c-10.9,0-10.9,0-15-9.9c-7.5-18-15-35.9-22.3-53.9c-1.1-2.7-2.5-3.9-5.5-3.9
		c-29.8,0.1-59.6,0.1-89.3,0c-2.9,0-4.2,1-5.3,3.7c-8,19.8-16.2,39.5-24.1,59.3c-1.4,3.6-3.2,5.2-7.2,4.8c-4.5-0.4-9.1-0.2-13.7,0
		c-3.1,0.1-3.4-0.8-2.3-3.5c7.3-17.2,14.5-34.5,21.7-51.7c21.8-52.1,43.7-104.2,65.4-156.3c1.3-3.1,2.9-4.6,6.4-4.2
		c4.1,0.5,9-1.4,12.3,0.7c3.4,2.2,3.9,7.4,5.5,11.4c22.9,54.4,45.6,108.9,68.4,163.3c5.1,12.1,10.2,24.2,15.2,36.4
		c1.6,3.8,1.4,4-2.7,4C1104.8,344.9,1102.2,344.9,1099.7,344.9z M1012.4,155.6c-0.2,0.4-0.5,0.8-0.7,1.2
		c-14,33.5-27.9,67-41.9,100.4c-1.4,3.4,0.2,3.6,2.9,3.5c26.4,0,52.7,0,79.1,0c4.1,0,4.2-0.2,2.7-4.1
		c-13.2-32.6-26.4-65.1-39.6-97.7C1014.2,157.8,1014,156.3,1012.4,155.6z"/>
	<path class="st0" d="M1179.1,303.7c0-12,0-24,0-36.1c0-2.6-0.6-4.9-2-7.1c-26.4-42.6-52.7-85.2-79-127.8c-0.6-0.9-1.8-1.9-1.1-3
		c0.6-1,2.1-0.5,3.2-0.5c4.9,0,9.9,0.2,14.8-0.1c2.9-0.1,4.5,0.8,6.1,3.3c21.9,36.1,44,72.1,66,108.2c0.3,0.4,0.6,0.8,0.8,1.3
		c1.4,3,2.6,2.6,4.2,0c8.4-13.9,16.9-27.6,25.3-41.4c13.9-22.8,27.9-45.5,41.8-68.3c1.4-2.2,2.8-3.2,5.5-3.1
		c5.2,0.2,10.4,0,15.6,0.1c1,0,2.4-0.1,2.9,0.4c0.8,1.1-0.4,2-1,3c-16.4,26.6-32.9,53.1-49.4,79.7c-10.1,16.3-20.2,32.7-30.4,49
		c-1.5,2.4-2.1,4.7-2.1,7.5c0.1,24,0,48.1,0.1,72.1c0,3.1-0.7,4.3-4,4c-4-0.3-8.1-0.3-12.2,0c-3.8,0.3-5.1-0.9-5-4.8
		C1179.2,328,1179.1,315.9,1179.1,303.7z"/>
	<path class="st0" d="M1458.2,126.2c-0.1,9.3-7.7,16.8-17,16.8c-9.4,0-17.1-7.9-17-17.3c0.1-9.3,7.8-16.8,17.1-16.8
		C1450.7,108.9,1458.3,116.7,1458.2,126.2z M1446.6,125.8c-0.1-3-2.3-5.2-5.4-5.2c-2.9,0-5.3,2.4-5.3,5.3c0,3,2.6,5.5,5.6,5.4
		C1444.4,131.2,1446.7,128.8,1446.6,125.8z"/>
	<path class="st0" d="M1524.9,108.9c9.4,0.1,17.2,8,17,17.4c-0.2,9.3-7.9,16.8-17.2,16.8c-9.4-0.1-17.2-8-17-17.3
		C1507.9,116.4,1515.6,108.8,1524.9,108.9z M1519.4,125.9c0,2.9,2.2,5.3,5.2,5.4c3.1,0.1,5.6-2.4,5.5-5.5c-0.1-2.9-2.4-5.2-5.4-5.2
		C1521.7,120.7,1519.4,123,1519.4,125.9z"/>
</g>
</svg>
