<svg width="141" height="36" viewBox="0 0 141 36" fill="none" xmlns="http://www.w3.org/2000/svg">
<path d="M33.8921 7.56622C33.477 6.87448 32.9288 6.27191 32.2794 5.79335C31.6299 5.31479 30.892 4.96974 30.1083 4.77816L11.7634 0.209484C10.8772 -0.0132057 9.95585 -0.0588962 9.05203 0.0750298C8.14821 0.208956 7.27968 0.519867 6.4962 0.989958C5.71272 1.46005 5.02967 2.08008 4.48617 2.81455C3.94267 3.54902 3.5494 4.38349 3.32889 5.27017L0.201106 17.8867C-0.198322 19.5076 0.00136674 21.2182 0.763393 22.7036C1.52542 24.1889 2.79846 25.3488 4.34805 25.9698L3.99662 27.5044C3.64407 28.6656 3.58473 29.896 3.82391 31.0858C4.06308 32.2755 4.59332 33.3875 5.36722 34.3222C5.8858 34.8724 6.51527 35.3062 7.21399 35.595C7.91271 35.8838 8.66477 36.0209 9.42045 35.9974C9.81296 36.0016 10.205 35.9702 10.5919 35.9037L25.3639 33.4671C26.7452 33.1285 28.0036 32.4087 28.9957 31.3896C29.9878 30.3706 30.6737 29.0934 30.9752 27.7035L32.6387 20.3819L34.6653 12.1817C34.847 11.3994 34.8723 10.5889 34.7396 9.79677C34.6069 9.00466 34.3189 8.2466 33.8921 7.56622ZM30.6472 9.99113H30.8346C30.9097 9.98386 30.9849 10.0047 31.0455 10.0497C31.1509 10.1551 31.2915 10.5534 31.1275 11.2914L27.8006 25.8643C27.552 26.5183 27.0732 27.0589 26.4541 27.3847C25.835 27.7104 25.1182 27.7988 24.4385 27.6332L8.38957 23.6503L9.32673 19.5502C10.0999 16.1413 13.1222 12.8729 15.9103 12.416L30.6472 9.99113ZM3.80918 21.4128C3.56214 21.006 3.39774 20.5546 3.32537 20.0842C3.25301 19.6138 3.27411 19.1338 3.38746 18.6716L6.51524 6.06676C6.70865 5.27993 7.15964 4.58038 7.79647 4.07941C8.43329 3.57845 9.21936 3.30484 10.0296 3.30212C10.3295 3.30251 10.6283 3.3379 10.9199 3.40756L26.3245 7.2265L15.3597 9.03054C11.1893 9.72169 7.07754 13.9975 5.98809 18.777L5.09778 22.678C4.56538 22.3757 4.12118 21.9396 3.80918 21.4128ZM9.95931 32.5182C9.59283 32.6143 9.20788 32.6152 8.84093 32.5209C8.47398 32.4266 8.13718 32.2402 7.86241 31.9793C7.49151 31.4441 7.2507 30.8297 7.15918 30.185C7.06766 29.5403 7.12796 28.8831 7.33526 28.2658L7.66327 26.8601L22.3064 30.4682L9.95931 32.5182Z" fill="#06AED4"/>
<path d="M46.6226 26V10.1297H53.1003C54.7505 10.1297 56.154 10.415 57.3108 10.9857C58.4675 11.5563 59.3543 12.4277 59.9712 13.5999C60.6036 14.7566 60.9198 16.2449 60.9198 18.0648C60.9198 19.8693 60.6036 21.3577 59.9712 22.5298C59.3543 23.702 58.4675 24.5734 57.3108 25.144C56.154 25.7147 54.7505 26 53.1003 26H46.6226ZM50.0697 23.1545H53.0771C53.7712 23.1545 54.3881 23.0542 54.9279 22.8537C55.4677 22.6532 55.915 22.3602 56.2697 21.9746C56.6244 21.5736 56.8943 21.0801 57.0794 20.494C57.2645 19.8925 57.357 19.1984 57.357 18.4119V17.7178C57.357 16.9313 57.2645 16.2449 57.0794 15.6589C56.8943 15.0574 56.6244 14.5638 56.2697 14.1782C55.915 13.7772 55.4677 13.4765 54.9279 13.276C54.3881 13.0601 53.7712 12.9521 53.0771 12.9521H50.0697V23.1545ZM63.725 26V10.1297H67.172V26H63.725ZM77.9014 26.2776C75.4029 26.2776 73.475 25.6144 72.1178 24.288C70.776 22.9462 70.1051 20.8718 70.1051 18.0648C70.1051 16.1987 70.429 14.6641 71.0767 13.4611C71.7245 12.2427 72.6653 11.3404 73.8991 10.7543C75.133 10.1528 76.6136 9.85208 78.341 9.85208C79.3743 9.85208 80.346 9.96776 81.2559 10.1991C82.1659 10.4304 82.9679 10.7852 83.6619 11.2633C84.3714 11.7414 84.9189 12.3429 85.3045 13.0678C85.7055 13.7772 85.906 14.6255 85.906 15.6126H82.4127C82.4127 15.1345 82.3047 14.7103 82.0888 14.3402C81.8883 13.97 81.6029 13.6616 81.2328 13.4148C80.8626 13.168 80.4385 12.983 79.9604 12.8596C79.4823 12.7362 78.981 12.6745 78.4567 12.6745C77.6547 12.6745 76.9529 12.7825 76.3514 12.9984C75.7499 13.1989 75.2487 13.5151 74.8477 13.9469C74.4621 14.3633 74.169 14.8877 73.9685 15.52C73.768 16.1524 73.6678 16.885 73.6678 17.7178V18.4119C73.6678 19.5686 73.8375 20.5171 74.1768 21.2574C74.5161 21.9977 75.025 22.553 75.7036 22.9231C76.3823 23.2778 77.2228 23.4552 78.2253 23.4552C79.0581 23.4552 79.7907 23.3318 80.4231 23.085C81.0709 22.8229 81.5721 22.4527 81.9268 21.9746C82.297 21.4965 82.4821 20.9104 82.4821 20.2164V20.0544H77.7395V17.4171H85.906V26H83.6388L83.338 24.288C82.8753 24.7353 82.3741 25.1055 81.8343 25.3985C81.3099 25.6915 80.7238 25.9075 80.0761 26.0463C79.4283 26.2005 78.7034 26.2776 77.9014 26.2776ZM89.2317 26V10.1297H92.6788V26H89.2317ZM96.1902 26V10.1297H104.449C105.591 10.1297 106.539 10.3456 107.295 10.7775C108.066 11.1939 108.644 11.7877 109.03 12.5588C109.431 13.3146 109.631 14.2168 109.631 15.2656C109.631 16.3143 109.423 17.232 109.007 18.0186C108.606 18.7897 108.012 19.3912 107.225 19.8231C106.439 20.2549 105.475 20.4708 104.334 20.4708H99.6372V26H96.1902ZM99.6372 17.6484H103.871C104.596 17.6484 105.151 17.4402 105.537 17.0238C105.938 16.6074 106.138 16.029 106.138 15.2887C106.138 14.7797 106.053 14.3556 105.884 14.0163C105.714 13.677 105.459 13.4148 105.12 13.2297C104.796 13.0447 104.38 12.9521 103.871 12.9521H99.6372V17.6484ZM109.165 26L115.273 10.1297H119.53L125.637 26H121.913L120.779 22.8768H113.862L112.728 26H109.165ZM114.857 20.1007H119.784L118.373 16.191C118.311 16.0213 118.234 15.8208 118.142 15.5895C118.065 15.3427 117.98 15.0728 117.887 14.7797C117.795 14.4867 117.702 14.2014 117.61 13.9238C117.532 13.6307 117.455 13.3685 117.378 13.1372H117.239C117.162 13.4302 117.062 13.7772 116.939 14.1782C116.815 14.5638 116.692 14.9417 116.568 15.3118C116.445 15.6666 116.345 15.9596 116.268 16.191L114.857 20.1007ZM130.232 26V19.6149L124.078 10.1297H128.08L132.013 16.5148H132.129L136.039 10.1297H139.809L133.702 19.6149V26H130.232Z" fill="black"/>
</svg>
